<mxfile host="app.diagrams.net" agent="Mozilla/5.0 (Macintosh; Intel Mac OS X 10_15_7) AppleWebKit/537.36 (KHTML, like Gecko) Chrome/138.0.0.0 Safari/537.36" version="28.0.4">
  <diagram name="Page-1" id="7olxjzG8O-aa4FaBFeG-">
    <mxGraphModel dx="-15587" dy="16527" grid="1" gridSize="10" guides="1" tooltips="1" connect="1" arrows="1" fold="1" page="1" pageScale="1" pageWidth="850" pageHeight="1100" math="0" shadow="0">
      <root>
        <mxCell id="0" />
        <mxCell id="1" parent="0" />
        <mxCell id="Ob4dMHm7MTZS2m7D0Z62-1" value="" style="rounded=0;whiteSpace=wrap;html=1;strokeColor=light-dark(#8e3684, #ededed);fillColor=none;fontSize=16;fontFamily=Roboto;fontSource=https%3A%2F%2Ffonts.googleapis.com%2Fcss%3Ffamily%3DRoboto;fontColor=light-dark(#333333,#CFBFFC);strokeWidth=3;glass=0;shadow=0;container=0;labelBorderColor=none;" parent="1" vertex="1">
          <mxGeometry x="17670.01" y="-15202" width="159.66" height="738" as="geometry" />
        </mxCell>
        <mxCell id="Ob4dMHm7MTZS2m7D0Z62-2" value="" style="rounded=0;whiteSpace=wrap;html=1;strokeColor=light-dark(#8e3684, #ededed);fillColor=none;fontSize=16;fontFamily=Roboto;fontSource=https%3A%2F%2Ffonts.googleapis.com%2Fcss%3Ffamily%3DRoboto;fontColor=light-dark(#333333,#CFBFFC);strokeWidth=3;glass=0;shadow=0;container=0;labelBorderColor=none;" parent="1" vertex="1">
          <mxGeometry x="17349" y="-15202" width="159.66" height="735" as="geometry" />
        </mxCell>
        <mxCell id="Ob4dMHm7MTZS2m7D0Z62-3" value="" style="rounded=0;whiteSpace=wrap;html=1;strokeColor=light-dark(#8e3684, #ededed);fillColor=none;fontSize=16;fontFamily=Roboto;fontSource=https%3A%2F%2Ffonts.googleapis.com%2Fcss%3Ffamily%3DRoboto;fontColor=light-dark(#333333,#CFBFFC);strokeWidth=3;glass=0;shadow=0;container=0;labelBorderColor=none;" parent="1" vertex="1">
          <mxGeometry x="17019.34" y="-15202" width="159.66" height="354" as="geometry" />
        </mxCell>
        <mxCell id="Ob4dMHm7MTZS2m7D0Z62-4" value="Act I" style="rounded=0;whiteSpace=wrap;html=1;strokeColor=none;fillColor=#8E3684;fontSize=54;fontFamily=Roboto;fontSource=https%3A%2F%2Ffonts.googleapis.com%2Fcss%3Ffamily%3DRoboto;fontColor=#FFFFFF;strokeWidth=24;glass=0;shadow=0;container=0;" parent="1" vertex="1">
          <mxGeometry x="17018" y="-15335" width="162.67" height="76" as="geometry" />
        </mxCell>
        <mxCell id="Ob4dMHm7MTZS2m7D0Z62-5" style="edgeStyle=orthogonalEdgeStyle;rounded=0;orthogonalLoop=1;jettySize=auto;html=1;" parent="1" edge="1">
          <mxGeometry relative="1" as="geometry">
            <mxPoint x="17330" y="-15123" as="targetPoint" />
            <mxPoint x="17196" y="-15123" as="sourcePoint" />
          </mxGeometry>
        </mxCell>
        <mxCell id="Ob4dMHm7MTZS2m7D0Z62-6" value="[Act I want]" style="text;html=1;align=left;verticalAlign=middle;whiteSpace=wrap;rounded=0;fontFamily=Roboto;fontSource=https%3A%2F%2Ffonts.googleapis.com%2Fcss%3Ffamily%3DRoboto;fontSize=16;" parent="1" vertex="1">
          <mxGeometry x="17033.75" y="-15145" width="127.25" height="43" as="geometry" />
        </mxCell>
        <mxCell id="Ob4dMHm7MTZS2m7D0Z62-7" value="Summary" style="rounded=0;whiteSpace=wrap;html=1;strokeColor=light-dark(#8e3684, #ededed);fillColor=none;fontSize=16;fontFamily=Roboto;fontSource=https%3A%2F%2Ffonts.googleapis.com%2Fcss%3Ffamily%3DRoboto;fontColor=light-dark(#333333,#CFBFFC);strokeWidth=3;glass=0;shadow=0;container=0;labelBorderColor=none;" parent="1" vertex="1">
          <mxGeometry x="17019" y="-15259" width="160" height="57" as="geometry" />
        </mxCell>
        <mxCell id="Ob4dMHm7MTZS2m7D0Z62-8" value="Act II" style="rounded=0;whiteSpace=wrap;html=1;strokeColor=none;fillColor=#8E3684;fontSize=54;fontFamily=Roboto;fontSource=https%3A%2F%2Ffonts.googleapis.com%2Fcss%3Ffamily%3DRoboto;fontColor=#FFFFFF;strokeWidth=24;glass=0;shadow=0;container=0;" parent="1" vertex="1">
          <mxGeometry x="17348" y="-15335" width="162.67" height="76" as="geometry" />
        </mxCell>
        <mxCell id="Ob4dMHm7MTZS2m7D0Z62-9" value="Summary" style="rounded=0;whiteSpace=wrap;html=1;strokeColor=light-dark(#8e3684, #ededed);fillColor=none;fontSize=16;fontFamily=Roboto;fontSource=https%3A%2F%2Ffonts.googleapis.com%2Fcss%3Ffamily%3DRoboto;fontColor=light-dark(#333333,#CFBFFC);strokeWidth=3;glass=0;shadow=0;container=0;labelBorderColor=none;" parent="1" vertex="1">
          <mxGeometry x="17349" y="-15259" width="160" height="57" as="geometry" />
        </mxCell>
        <mxCell id="Ob4dMHm7MTZS2m7D0Z62-10" value="Act III" style="rounded=0;whiteSpace=wrap;html=1;strokeColor=none;fillColor=#8E3684;fontSize=54;fontFamily=Roboto;fontSource=https%3A%2F%2Ffonts.googleapis.com%2Fcss%3Ffamily%3DRoboto;fontColor=#FFFFFF;strokeWidth=24;glass=0;shadow=0;container=0;" parent="1" vertex="1">
          <mxGeometry x="17669" y="-15335" width="162.67" height="76" as="geometry" />
        </mxCell>
        <mxCell id="Ob4dMHm7MTZS2m7D0Z62-11" value="Summary" style="rounded=0;whiteSpace=wrap;html=1;strokeColor=light-dark(#8e3684, #ededed);fillColor=none;fontSize=16;fontFamily=Roboto;fontSource=https%3A%2F%2Ffonts.googleapis.com%2Fcss%3Ffamily%3DRoboto;fontColor=light-dark(#333333,#CFBFFC);strokeWidth=3;glass=0;shadow=0;container=0;labelBorderColor=none;" parent="1" vertex="1">
          <mxGeometry x="17670" y="-15259" width="160" height="57" as="geometry" />
        </mxCell>
        <mxCell id="Ob4dMHm7MTZS2m7D0Z62-12" value="I want...." style="text;html=1;align=left;verticalAlign=middle;whiteSpace=wrap;rounded=0;fontFamily=Roboto;fontSource=https%3A%2F%2Ffonts.googleapis.com%2Fcss%3Ffamily%3DRoboto;fontSize=22;fontStyle=1" parent="1" vertex="1">
          <mxGeometry x="17049.420000000002" y="-15177" width="99.16" height="30" as="geometry" />
        </mxCell>
        <mxCell id="Ob4dMHm7MTZS2m7D0Z62-13" value="I&#39;ve found...." style="text;html=1;align=left;verticalAlign=middle;whiteSpace=wrap;rounded=0;fontFamily=Roboto;fontSource=https%3A%2F%2Ffonts.googleapis.com%2Fcss%3Ffamily%3DRoboto;fontSize=22;fontStyle=1" parent="1" vertex="1">
          <mxGeometry x="17363.77" y="-15177" width="131.12" height="30" as="geometry" />
        </mxCell>
        <mxCell id="Ob4dMHm7MTZS2m7D0Z62-14" value="I&#39;ve learned...." style="text;html=1;align=left;verticalAlign=middle;whiteSpace=wrap;rounded=0;fontFamily=Roboto;fontSource=https%3A%2F%2Ffonts.googleapis.com%2Fcss%3Ffamily%3DRoboto;fontSize=22;fontStyle=1" parent="1" vertex="1">
          <mxGeometry x="17676.89" y="-15177" width="146.89" height="30" as="geometry" />
        </mxCell>
        <mxCell id="Ob4dMHm7MTZS2m7D0Z62-15" value="[Act I want]" style="text;html=1;align=left;verticalAlign=middle;whiteSpace=wrap;rounded=0;fontFamily=Roboto;fontSource=https%3A%2F%2Ffonts.googleapis.com%2Fcss%3Ffamily%3DRoboto;fontSize=16;" parent="1" vertex="1">
          <mxGeometry x="17033.75" y="-15079" width="130.5" height="43" as="geometry" />
        </mxCell>
        <mxCell id="Ob4dMHm7MTZS2m7D0Z62-16" value="[Act I want]" style="text;html=1;align=left;verticalAlign=middle;whiteSpace=wrap;rounded=0;fontFamily=Roboto;fontSource=https%3A%2F%2Ffonts.googleapis.com%2Fcss%3Ffamily%3DRoboto;fontSize=16;" parent="1" vertex="1">
          <mxGeometry x="17033.75" y="-15012" width="130.5" height="63" as="geometry" />
        </mxCell>
        <mxCell id="Ob4dMHm7MTZS2m7D0Z62-17" value="[Act I want]" style="text;html=1;align=left;verticalAlign=middle;whiteSpace=wrap;rounded=0;fontFamily=Roboto;fontSource=https%3A%2F%2Ffonts.googleapis.com%2Fcss%3Ffamily%3DRoboto;fontSize=16;" parent="1" vertex="1">
          <mxGeometry x="17033.75" y="-14925" width="121" height="43" as="geometry" />
        </mxCell>
        <mxCell id="Ob4dMHm7MTZS2m7D0Z62-18" value="[Act II discovery]" style="text;html=1;align=center;verticalAlign=middle;whiteSpace=wrap;rounded=0;fontFamily=Roboto;fontSource=https%3A%2F%2Ffonts.googleapis.com%2Fcss%3Ffamily%3DRoboto;fontSize=16;" parent="1" vertex="1">
          <mxGeometry x="17369.34" y="-15145" width="120" height="43" as="geometry" />
        </mxCell>
        <mxCell id="Ob4dMHm7MTZS2m7D0Z62-19" value="[Act II discovery]" style="text;html=1;align=center;verticalAlign=middle;whiteSpace=wrap;rounded=0;fontFamily=Roboto;fontSource=https%3A%2F%2Ffonts.googleapis.com%2Fcss%3Ffamily%3DRoboto;fontSize=16;" parent="1" vertex="1">
          <mxGeometry x="17357" y="-15079" width="140" height="43" as="geometry" />
        </mxCell>
        <mxCell id="Ob4dMHm7MTZS2m7D0Z62-20" value="[Act II discovery]" style="text;html=1;align=center;verticalAlign=middle;whiteSpace=wrap;rounded=0;fontFamily=Roboto;fontSource=https%3A%2F%2Ffonts.googleapis.com%2Fcss%3Ffamily%3DRoboto;fontSize=16;" parent="1" vertex="1">
          <mxGeometry x="17363.75" y="-14925" width="121" height="43" as="geometry" />
        </mxCell>
        <mxCell id="Ob4dMHm7MTZS2m7D0Z62-21" value="[Act II discovery]" style="text;html=1;align=center;verticalAlign=middle;whiteSpace=wrap;rounded=0;fontFamily=Roboto;fontSource=https%3A%2F%2Ffonts.googleapis.com%2Fcss%3Ffamily%3DRoboto;fontSize=16;" parent="1" vertex="1">
          <mxGeometry x="17366" y="-15002" width="122" height="43" as="geometry" />
        </mxCell>
        <mxCell id="Ob4dMHm7MTZS2m7D0Z62-22" style="edgeStyle=orthogonalEdgeStyle;rounded=0;orthogonalLoop=1;jettySize=auto;html=1;" parent="1" edge="1">
          <mxGeometry relative="1" as="geometry">
            <mxPoint x="17331" y="-15058" as="targetPoint" />
            <mxPoint x="17197" y="-15058" as="sourcePoint" />
          </mxGeometry>
        </mxCell>
        <mxCell id="Ob4dMHm7MTZS2m7D0Z62-23" style="edgeStyle=orthogonalEdgeStyle;rounded=0;orthogonalLoop=1;jettySize=auto;html=1;" parent="1" edge="1">
          <mxGeometry relative="1" as="geometry">
            <mxPoint x="17332" y="-14981" as="targetPoint" />
            <mxPoint x="17198" y="-14981" as="sourcePoint" />
          </mxGeometry>
        </mxCell>
        <mxCell id="Ob4dMHm7MTZS2m7D0Z62-24" style="edgeStyle=orthogonalEdgeStyle;rounded=0;orthogonalLoop=1;jettySize=auto;html=1;" parent="1" edge="1">
          <mxGeometry relative="1" as="geometry">
            <mxPoint x="17331" y="-14904" as="targetPoint" />
            <mxPoint x="17197" y="-14904" as="sourcePoint" />
          </mxGeometry>
        </mxCell>
        <mxCell id="Ob4dMHm7MTZS2m7D0Z62-25" value="EVENT" style="rounded=0;whiteSpace=wrap;html=1;strokeColor=none;fillColor=#8E3684;fontSize=37;fontFamily=Roboto;fontSource=https%3A%2F%2Ffonts.googleapis.com%2Fcss%3Ffamily%3DRoboto;fontColor=#FFFFFF;strokeWidth=24;glass=0;shadow=0;container=0;" parent="1" vertex="1">
          <mxGeometry x="17349" y="-14854" width="160" height="60" as="geometry" />
        </mxCell>
        <mxCell id="Ob4dMHm7MTZS2m7D0Z62-26" value="&lt;div&gt;Add in&lt;/div&gt;&lt;div&gt;your&lt;/div&gt;details&lt;div&gt;here&lt;/div&gt;" style="text;html=1;align=left;verticalAlign=middle;whiteSpace=wrap;rounded=0;fontFamily=Roboto;fontSource=https%3A%2F%2Ffonts.googleapis.com%2Fcss%3Ffamily%3DRoboto;fontSize=16;" parent="1" vertex="1">
          <mxGeometry x="17362.88" y="-14794" width="128.25" height="135" as="geometry" />
        </mxCell>
        <mxCell id="Ob4dMHm7MTZS2m7D0Z62-27" value="Learning" style="text;html=1;align=center;verticalAlign=middle;whiteSpace=wrap;rounded=0;fontFamily=Roboto;fontSource=https%3A%2F%2Ffonts.googleapis.com%2Fcss%3Ffamily%3DRoboto;fontSize=16;" parent="1" vertex="1">
          <mxGeometry x="17676.89" y="-15145" width="152.29" height="43" as="geometry" />
        </mxCell>
        <mxCell id="Ob4dMHm7MTZS2m7D0Z62-28" value="Learning" style="text;html=1;align=center;verticalAlign=middle;whiteSpace=wrap;rounded=0;fontFamily=Roboto;fontSource=https%3A%2F%2Ffonts.googleapis.com%2Fcss%3Ffamily%3DRoboto;fontSize=16;" parent="1" vertex="1">
          <mxGeometry x="17676.89" y="-15079" width="152.29" height="43" as="geometry" />
        </mxCell>
        <mxCell id="Ob4dMHm7MTZS2m7D0Z62-29" value="Learning" style="text;html=1;align=center;verticalAlign=middle;whiteSpace=wrap;rounded=0;fontFamily=Roboto;fontSource=https%3A%2F%2Ffonts.googleapis.com%2Fcss%3Ffamily%3DRoboto;fontSize=16;" parent="1" vertex="1">
          <mxGeometry x="17679.38" y="-15002" width="152.29" height="43" as="geometry" />
        </mxCell>
        <mxCell id="Ob4dMHm7MTZS2m7D0Z62-30" value="Learning" style="text;html=1;align=center;verticalAlign=middle;whiteSpace=wrap;rounded=0;fontFamily=Roboto;fontSource=https%3A%2F%2Ffonts.googleapis.com%2Fcss%3Ffamily%3DRoboto;fontSize=16;" parent="1" vertex="1">
          <mxGeometry x="17679.38" y="-14925" width="152.29" height="43" as="geometry" />
        </mxCell>
        <mxCell id="Ob4dMHm7MTZS2m7D0Z62-31" value="I want...." style="text;html=1;align=left;verticalAlign=middle;whiteSpace=wrap;rounded=0;fontFamily=Roboto;fontSource=https%3A%2F%2Ffonts.googleapis.com%2Fcss%3Ffamily%3DRoboto;fontSize=22;fontStyle=1" parent="1" vertex="1">
          <mxGeometry x="17379.250000000004" y="-14646" width="99.16" height="30" as="geometry" />
        </mxCell>
        <mxCell id="Ob4dMHm7MTZS2m7D0Z62-32" value="[new Act II want]" style="text;html=1;align=left;verticalAlign=middle;whiteSpace=wrap;rounded=0;fontFamily=Roboto;fontSource=https%3A%2F%2Ffonts.googleapis.com%2Fcss%3Ffamily%3DRoboto;fontSize=16;" parent="1" vertex="1">
          <mxGeometry x="17363.75" y="-14600" width="121" height="43" as="geometry" />
        </mxCell>
        <mxCell id="Ob4dMHm7MTZS2m7D0Z62-33" value="[new Act II want]" style="text;html=1;align=left;verticalAlign=middle;whiteSpace=wrap;rounded=0;fontFamily=Roboto;fontSource=https%3A%2F%2Ffonts.googleapis.com%2Fcss%3Ffamily%3DRoboto;fontSize=16;" parent="1" vertex="1">
          <mxGeometry x="17362.88" y="-14541" width="121" height="50" as="geometry" />
        </mxCell>
        <mxCell id="Ob4dMHm7MTZS2m7D0Z62-34" style="edgeStyle=orthogonalEdgeStyle;rounded=0;orthogonalLoop=1;jettySize=auto;html=1;" parent="1" edge="1">
          <mxGeometry relative="1" as="geometry">
            <mxPoint x="17657" y="-15124" as="targetPoint" />
            <mxPoint x="17523" y="-15124" as="sourcePoint" />
          </mxGeometry>
        </mxCell>
        <mxCell id="Ob4dMHm7MTZS2m7D0Z62-35" style="edgeStyle=orthogonalEdgeStyle;rounded=0;orthogonalLoop=1;jettySize=auto;html=1;" parent="1" edge="1">
          <mxGeometry relative="1" as="geometry">
            <mxPoint x="17658" y="-15059" as="targetPoint" />
            <mxPoint x="17524" y="-15059" as="sourcePoint" />
          </mxGeometry>
        </mxCell>
        <mxCell id="Ob4dMHm7MTZS2m7D0Z62-36" style="edgeStyle=orthogonalEdgeStyle;rounded=0;orthogonalLoop=1;jettySize=auto;html=1;" parent="1" edge="1">
          <mxGeometry relative="1" as="geometry">
            <mxPoint x="17659" y="-14982" as="targetPoint" />
            <mxPoint x="17525" y="-14982" as="sourcePoint" />
          </mxGeometry>
        </mxCell>
        <mxCell id="Ob4dMHm7MTZS2m7D0Z62-37" style="edgeStyle=orthogonalEdgeStyle;rounded=0;orthogonalLoop=1;jettySize=auto;html=1;" parent="1" edge="1">
          <mxGeometry relative="1" as="geometry">
            <mxPoint x="17658" y="-14905" as="targetPoint" />
            <mxPoint x="17524" y="-14905" as="sourcePoint" />
          </mxGeometry>
        </mxCell>
        <mxCell id="Ob4dMHm7MTZS2m7D0Z62-38" value="Learning" style="text;html=1;align=center;verticalAlign=middle;whiteSpace=wrap;rounded=0;fontFamily=Roboto;fontSource=https%3A%2F%2Ffonts.googleapis.com%2Fcss%3Ffamily%3DRoboto;fontSize=16;" parent="1" vertex="1">
          <mxGeometry x="17673.690000000002" y="-14600" width="152.29" height="43" as="geometry" />
        </mxCell>
        <mxCell id="Ob4dMHm7MTZS2m7D0Z62-39" value="Learning" style="text;html=1;align=center;verticalAlign=middle;whiteSpace=wrap;rounded=0;fontFamily=Roboto;fontSource=https%3A%2F%2Ffonts.googleapis.com%2Fcss%3Ffamily%3DRoboto;fontSize=16;" parent="1" vertex="1">
          <mxGeometry x="17673.690000000002" y="-14537.5" width="152.29" height="43" as="geometry" />
        </mxCell>
        <mxCell id="Ob4dMHm7MTZS2m7D0Z62-40" style="edgeStyle=orthogonalEdgeStyle;rounded=0;orthogonalLoop=1;jettySize=auto;html=1;" parent="1" edge="1">
          <mxGeometry relative="1" as="geometry">
            <mxPoint x="17656" y="-14579" as="targetPoint" />
            <mxPoint x="17522" y="-14579" as="sourcePoint" />
          </mxGeometry>
        </mxCell>
        <mxCell id="Ob4dMHm7MTZS2m7D0Z62-41" style="edgeStyle=orthogonalEdgeStyle;rounded=0;orthogonalLoop=1;jettySize=auto;html=1;" parent="1" edge="1">
          <mxGeometry relative="1" as="geometry">
            <mxPoint x="17659" y="-14516.5" as="targetPoint" />
            <mxPoint x="17525" y="-14516.5" as="sourcePoint" />
          </mxGeometry>
        </mxCell>
      </root>
    </mxGraphModel>
  </diagram>
</mxfile>
